<mxfile host="app.diagrams.net" modified="2021-06-17T07:29:59.999Z" agent="5.0 (Windows NT 10.0; Win64; x64) AppleWebKit/537.36 (KHTML, like Gecko) Chrome/91.0.4472.101 Safari/537.36 Edg/91.0.864.48" etag="VvU96gjiNdKv1_ehbW5s" version="14.7.7" type="github">
  <diagram id="R2lEEEUBdFMjLlhIrx00" name="Page-1">
    <mxGraphModel dx="1248" dy="677" grid="1" gridSize="10" guides="1" tooltips="1" connect="1" arrows="1" fold="1" page="1" pageScale="1" pageWidth="1169" pageHeight="1654" math="0" shadow="0" extFonts="Permanent Marker^https://fonts.googleapis.com/css?family=Permanent+Marker">
      <root>
        <mxCell id="0" />
        <mxCell id="1" parent="0" />
        <mxCell id="C-Wze693i4gCi11VPQKC-1" value="Departamento" style="whiteSpace=wrap;html=1;align=center;" vertex="1" parent="1">
          <mxGeometry x="240" y="300" width="100" height="40" as="geometry" />
        </mxCell>
        <mxCell id="C-Wze693i4gCi11VPQKC-2" value="Numero" style="ellipse;whiteSpace=wrap;html=1;align=center;fontStyle=4;" vertex="1" parent="1">
          <mxGeometry x="110" y="260" width="100" height="40" as="geometry" />
        </mxCell>
        <mxCell id="C-Wze693i4gCi11VPQKC-4" value="Nome" style="ellipse;whiteSpace=wrap;html=1;align=center;" vertex="1" parent="1">
          <mxGeometry x="110" y="330" width="100" height="40" as="geometry" />
        </mxCell>
        <mxCell id="C-Wze693i4gCi11VPQKC-6" value="" style="endArrow=none;html=1;rounded=0;entryX=0;entryY=0.25;entryDx=0;entryDy=0;" edge="1" parent="1" target="C-Wze693i4gCi11VPQKC-1">
          <mxGeometry relative="1" as="geometry">
            <mxPoint x="210" y="279.5" as="sourcePoint" />
            <mxPoint x="370" y="279.5" as="targetPoint" />
          </mxGeometry>
        </mxCell>
        <mxCell id="C-Wze693i4gCi11VPQKC-7" value="" style="endArrow=none;html=1;rounded=0;entryX=0;entryY=0.75;entryDx=0;entryDy=0;" edge="1" parent="1" target="C-Wze693i4gCi11VPQKC-1">
          <mxGeometry relative="1" as="geometry">
            <mxPoint x="210" y="349.5" as="sourcePoint" />
            <mxPoint x="370" y="349.5" as="targetPoint" />
          </mxGeometry>
        </mxCell>
        <mxCell id="C-Wze693i4gCi11VPQKC-8" value="Projeto" style="whiteSpace=wrap;html=1;align=center;" vertex="1" parent="1">
          <mxGeometry x="660" y="300" width="100" height="40" as="geometry" />
        </mxCell>
        <mxCell id="C-Wze693i4gCi11VPQKC-10" value="N° ID" style="ellipse;whiteSpace=wrap;html=1;align=center;" vertex="1" parent="1">
          <mxGeometry x="840" y="230" width="100" height="40" as="geometry" />
        </mxCell>
        <mxCell id="C-Wze693i4gCi11VPQKC-11" value="Nome" style="ellipse;whiteSpace=wrap;html=1;align=center;" vertex="1" parent="1">
          <mxGeometry x="840" y="300" width="100" height="40" as="geometry" />
        </mxCell>
        <mxCell id="C-Wze693i4gCi11VPQKC-12" value="Tempo de dev" style="ellipse;whiteSpace=wrap;html=1;align=center;" vertex="1" parent="1">
          <mxGeometry x="840" y="370" width="100" height="40" as="geometry" />
        </mxCell>
        <mxCell id="C-Wze693i4gCi11VPQKC-13" value="" style="endArrow=none;html=1;rounded=0;" edge="1" parent="1">
          <mxGeometry relative="1" as="geometry">
            <mxPoint x="760" y="319.5" as="sourcePoint" />
            <mxPoint x="840" y="319.5" as="targetPoint" />
          </mxGeometry>
        </mxCell>
        <mxCell id="C-Wze693i4gCi11VPQKC-14" value="" style="endArrow=none;html=1;rounded=0;exitX=1;exitY=1;exitDx=0;exitDy=0;" edge="1" parent="1" source="C-Wze693i4gCi11VPQKC-8">
          <mxGeometry relative="1" as="geometry">
            <mxPoint x="760" y="389.5" as="sourcePoint" />
            <mxPoint x="840" y="389.5" as="targetPoint" />
          </mxGeometry>
        </mxCell>
        <mxCell id="C-Wze693i4gCi11VPQKC-15" value="" style="endArrow=none;html=1;rounded=0;exitX=1;exitY=0;exitDx=0;exitDy=0;" edge="1" parent="1" source="C-Wze693i4gCi11VPQKC-8">
          <mxGeometry relative="1" as="geometry">
            <mxPoint x="760" y="249.5" as="sourcePoint" />
            <mxPoint x="840" y="249.5" as="targetPoint" />
          </mxGeometry>
        </mxCell>
        <mxCell id="C-Wze693i4gCi11VPQKC-16" value="Controla" style="shape=rhombus;perimeter=rhombusPerimeter;whiteSpace=wrap;html=1;align=center;" vertex="1" parent="1">
          <mxGeometry x="440" y="290" width="120" height="60" as="geometry" />
        </mxCell>
        <mxCell id="C-Wze693i4gCi11VPQKC-17" value="" style="endArrow=none;html=1;rounded=0;" edge="1" parent="1">
          <mxGeometry relative="1" as="geometry">
            <mxPoint x="340" y="319.5" as="sourcePoint" />
            <mxPoint x="440" y="319.5" as="targetPoint" />
          </mxGeometry>
        </mxCell>
        <mxCell id="C-Wze693i4gCi11VPQKC-18" value="" style="endArrow=none;html=1;rounded=0;" edge="1" parent="1">
          <mxGeometry relative="1" as="geometry">
            <mxPoint x="560" y="319.5" as="sourcePoint" />
            <mxPoint x="660" y="319.5" as="targetPoint" />
          </mxGeometry>
        </mxCell>
        <mxCell id="C-Wze693i4gCi11VPQKC-19" value="(1,N)" style="text;html=1;align=center;verticalAlign=middle;resizable=0;points=[];autosize=1;strokeColor=none;" vertex="1" parent="1">
          <mxGeometry x="580" y="300" width="40" height="20" as="geometry" />
        </mxCell>
        <mxCell id="C-Wze693i4gCi11VPQKC-20" value="(1,N)" style="text;html=1;align=center;verticalAlign=middle;resizable=0;points=[];autosize=1;strokeColor=none;" vertex="1" parent="1">
          <mxGeometry x="370" y="300" width="40" height="20" as="geometry" />
        </mxCell>
        <mxCell id="C-Wze693i4gCi11VPQKC-21" value="Desenvolve" style="shape=rhombus;perimeter=rhombusPerimeter;whiteSpace=wrap;html=1;align=center;" vertex="1" parent="1">
          <mxGeometry x="440" y="370" width="120" height="60" as="geometry" />
        </mxCell>
        <mxCell id="C-Wze693i4gCi11VPQKC-22" value="" style="endArrow=none;html=1;rounded=0;" edge="1" parent="1">
          <mxGeometry relative="1" as="geometry">
            <mxPoint x="360" y="320" as="sourcePoint" />
            <mxPoint x="440" y="399.5" as="targetPoint" />
            <Array as="points">
              <mxPoint x="360" y="400" />
            </Array>
          </mxGeometry>
        </mxCell>
        <mxCell id="C-Wze693i4gCi11VPQKC-23" value="" style="endArrow=none;html=1;rounded=0;" edge="1" parent="1">
          <mxGeometry relative="1" as="geometry">
            <mxPoint x="560" y="399.5" as="sourcePoint" />
            <mxPoint x="640" y="320" as="targetPoint" />
            <Array as="points">
              <mxPoint x="640" y="400" />
            </Array>
          </mxGeometry>
        </mxCell>
        <mxCell id="C-Wze693i4gCi11VPQKC-24" value="(1,1)" style="text;html=1;align=center;verticalAlign=middle;resizable=0;points=[];autosize=1;strokeColor=none;" vertex="1" parent="1">
          <mxGeometry x="380" y="380" width="40" height="20" as="geometry" />
        </mxCell>
        <mxCell id="C-Wze693i4gCi11VPQKC-25" value="(1,1)" style="text;html=1;align=center;verticalAlign=middle;resizable=0;points=[];autosize=1;strokeColor=none;" vertex="1" parent="1">
          <mxGeometry x="560" y="380" width="40" height="20" as="geometry" />
        </mxCell>
        <mxCell id="C-Wze693i4gCi11VPQKC-30" value="Secretário" style="whiteSpace=wrap;html=1;align=center;" vertex="1" parent="1">
          <mxGeometry x="630" y="927" width="100" height="40" as="geometry" />
        </mxCell>
        <mxCell id="C-Wze693i4gCi11VPQKC-31" value="Pesquisador" style="whiteSpace=wrap;html=1;align=center;" vertex="1" parent="1">
          <mxGeometry x="490" y="927" width="100" height="40" as="geometry" />
        </mxCell>
        <mxCell id="C-Wze693i4gCi11VPQKC-32" value="Limpeza" style="whiteSpace=wrap;html=1;align=center;" vertex="1" parent="1">
          <mxGeometry x="790" y="927" width="100" height="40" as="geometry" />
        </mxCell>
        <mxCell id="C-Wze693i4gCi11VPQKC-34" value="Composto por" style="shape=rhombus;perimeter=rhombusPerimeter;whiteSpace=wrap;html=1;align=center;" vertex="1" parent="1">
          <mxGeometry x="620" y="540" width="120" height="60" as="geometry" />
        </mxCell>
        <mxCell id="C-Wze693i4gCi11VPQKC-42" value="Endereço" style="ellipse;whiteSpace=wrap;html=1;align=center;" vertex="1" parent="1">
          <mxGeometry x="790" y="647" width="100" height="40" as="geometry" />
        </mxCell>
        <mxCell id="C-Wze693i4gCi11VPQKC-43" value="Nome" style="ellipse;whiteSpace=wrap;html=1;align=center;fontStyle=4;" vertex="1" parent="1">
          <mxGeometry x="790" y="587" width="100" height="40" as="geometry" />
        </mxCell>
        <mxCell id="C-Wze693i4gCi11VPQKC-45" value="Sexo" style="ellipse;whiteSpace=wrap;html=1;align=center;" vertex="1" parent="1">
          <mxGeometry x="790" y="707" width="100" height="40" as="geometry" />
        </mxCell>
        <mxCell id="C-Wze693i4gCi11VPQKC-46" value="Salário" style="ellipse;whiteSpace=wrap;html=1;align=center;" vertex="1" parent="1">
          <mxGeometry x="790" y="767" width="100" height="40" as="geometry" />
        </mxCell>
        <mxCell id="C-Wze693i4gCi11VPQKC-47" value="Área de atuação" style="ellipse;whiteSpace=wrap;html=1;align=center;" vertex="1" parent="1">
          <mxGeometry x="480" y="997" width="100" height="40" as="geometry" />
        </mxCell>
        <mxCell id="C-Wze693i4gCi11VPQKC-55" value="" style="endArrow=none;html=1;rounded=0;exitX=1;exitY=0;exitDx=0;exitDy=0;" edge="1" parent="1">
          <mxGeometry relative="1" as="geometry">
            <mxPoint x="730" y="677" as="sourcePoint" />
            <mxPoint x="790" y="607" as="targetPoint" />
          </mxGeometry>
        </mxCell>
        <mxCell id="C-Wze693i4gCi11VPQKC-56" value="" style="endArrow=none;html=1;rounded=0;exitX=1;exitY=1;exitDx=0;exitDy=0;" edge="1" parent="1">
          <mxGeometry relative="1" as="geometry">
            <mxPoint x="730" y="717" as="sourcePoint" />
            <mxPoint x="790" y="787" as="targetPoint" />
          </mxGeometry>
        </mxCell>
        <mxCell id="C-Wze693i4gCi11VPQKC-57" value="" style="endArrow=none;html=1;rounded=0;exitX=1;exitY=0.75;exitDx=0;exitDy=0;" edge="1" parent="1">
          <mxGeometry relative="1" as="geometry">
            <mxPoint x="730" y="707" as="sourcePoint" />
            <mxPoint x="790" y="727" as="targetPoint" />
          </mxGeometry>
        </mxCell>
        <mxCell id="C-Wze693i4gCi11VPQKC-58" value="" style="endArrow=none;html=1;rounded=0;exitX=1;exitY=0.25;exitDx=0;exitDy=0;" edge="1" parent="1">
          <mxGeometry relative="1" as="geometry">
            <mxPoint x="730" y="687" as="sourcePoint" />
            <mxPoint x="790" y="666.5" as="targetPoint" />
          </mxGeometry>
        </mxCell>
        <mxCell id="C-Wze693i4gCi11VPQKC-65" value="" style="endArrow=none;html=1;rounded=0;exitX=0;exitY=1;exitDx=0;exitDy=0;entryX=0;entryY=0.5;entryDx=0;entryDy=0;" edge="1" parent="1" source="C-Wze693i4gCi11VPQKC-31" target="C-Wze693i4gCi11VPQKC-47">
          <mxGeometry relative="1" as="geometry">
            <mxPoint x="450" y="866.5" as="sourcePoint" />
            <mxPoint x="490" y="1007" as="targetPoint" />
          </mxGeometry>
        </mxCell>
        <mxCell id="C-Wze693i4gCi11VPQKC-66" value="grau de escolaridade" style="ellipse;whiteSpace=wrap;html=1;align=center;" vertex="1" parent="1">
          <mxGeometry x="650" y="997" width="100" height="40" as="geometry" />
        </mxCell>
        <mxCell id="C-Wze693i4gCi11VPQKC-68" value="Cargo" style="ellipse;whiteSpace=wrap;html=1;align=center;" vertex="1" parent="1">
          <mxGeometry x="890" y="987" width="100" height="40" as="geometry" />
        </mxCell>
        <mxCell id="C-Wze693i4gCi11VPQKC-69" value="Jornada de Trabalho" style="ellipse;whiteSpace=wrap;html=1;align=center;" vertex="1" parent="1">
          <mxGeometry x="750" y="1027" width="100" height="40" as="geometry" />
        </mxCell>
        <mxCell id="C-Wze693i4gCi11VPQKC-70" value="" style="endArrow=none;html=1;rounded=0;exitX=0.25;exitY=1;exitDx=0;exitDy=0;entryX=1;entryY=0;entryDx=0;entryDy=0;" edge="1" parent="1" source="C-Wze693i4gCi11VPQKC-32" target="C-Wze693i4gCi11VPQKC-69">
          <mxGeometry relative="1" as="geometry">
            <mxPoint x="700" y="1056.5" as="sourcePoint" />
            <mxPoint x="860" y="1056.5" as="targetPoint" />
          </mxGeometry>
        </mxCell>
        <mxCell id="C-Wze693i4gCi11VPQKC-71" value="" style="endArrow=none;html=1;rounded=0;exitX=0.662;exitY=1.046;exitDx=0;exitDy=0;exitPerimeter=0;" edge="1" parent="1" source="C-Wze693i4gCi11VPQKC-32">
          <mxGeometry relative="1" as="geometry">
            <mxPoint x="730" y="1006.5" as="sourcePoint" />
            <mxPoint x="890" y="1006.5" as="targetPoint" />
          </mxGeometry>
        </mxCell>
        <mxCell id="C-Wze693i4gCi11VPQKC-82" value="possui" style="triangle;whiteSpace=wrap;html=1;direction=north;verticalAlign=bottom;" vertex="1" parent="1">
          <mxGeometry x="640" y="797" width="80" height="60" as="geometry" />
        </mxCell>
        <mxCell id="C-Wze693i4gCi11VPQKC-83" value="Funcionários" style="whiteSpace=wrap;html=1;align=center;" vertex="1" parent="1">
          <mxGeometry x="630" y="677" width="100" height="40" as="geometry" />
        </mxCell>
        <mxCell id="C-Wze693i4gCi11VPQKC-85" value="" style="endArrow=none;html=1;rounded=0;exitX=0.5;exitY=1;exitDx=0;exitDy=0;entryX=0;entryY=0;entryDx=0;entryDy=0;" edge="1" parent="1" source="C-Wze693i4gCi11VPQKC-30" target="C-Wze693i4gCi11VPQKC-66">
          <mxGeometry relative="1" as="geometry">
            <mxPoint x="630" y="1077" as="sourcePoint" />
            <mxPoint x="600" y="1107" as="targetPoint" />
          </mxGeometry>
        </mxCell>
        <mxCell id="C-Wze693i4gCi11VPQKC-86" value="" style="endArrow=none;html=1;rounded=0;entryX=-0.046;entryY=-0.002;entryDx=0;entryDy=0;entryPerimeter=0;exitX=0.38;exitY=-0.068;exitDx=0;exitDy=0;exitPerimeter=0;" edge="1" parent="1" source="C-Wze693i4gCi11VPQKC-31" target="C-Wze693i4gCi11VPQKC-82">
          <mxGeometry relative="1" as="geometry">
            <mxPoint x="530" y="977" as="sourcePoint" />
            <mxPoint x="640" y="857" as="targetPoint" />
          </mxGeometry>
        </mxCell>
        <mxCell id="C-Wze693i4gCi11VPQKC-87" value="" style="endArrow=none;html=1;rounded=0;entryX=0.5;entryY=0;entryDx=0;entryDy=0;exitX=-0.03;exitY=1.009;exitDx=0;exitDy=0;exitPerimeter=0;" edge="1" parent="1" source="C-Wze693i4gCi11VPQKC-82" target="C-Wze693i4gCi11VPQKC-32">
          <mxGeometry relative="1" as="geometry">
            <mxPoint x="690" y="947" as="sourcePoint" />
            <mxPoint x="850" y="947" as="targetPoint" />
          </mxGeometry>
        </mxCell>
        <mxCell id="C-Wze693i4gCi11VPQKC-88" value="" style="endArrow=none;html=1;rounded=0;entryX=0;entryY=0.5;entryDx=0;entryDy=0;" edge="1" parent="1" source="C-Wze693i4gCi11VPQKC-30" target="C-Wze693i4gCi11VPQKC-82">
          <mxGeometry relative="1" as="geometry">
            <mxPoint x="620" y="947" as="sourcePoint" />
            <mxPoint x="780" y="947" as="targetPoint" />
          </mxGeometry>
        </mxCell>
        <mxCell id="C-Wze693i4gCi11VPQKC-89" value="" style="endArrow=none;html=1;rounded=0;exitX=0.5;exitY=1;exitDx=0;exitDy=0;" edge="1" parent="1" source="C-Wze693i4gCi11VPQKC-83">
          <mxGeometry relative="1" as="geometry">
            <mxPoint x="520" y="797" as="sourcePoint" />
            <mxPoint x="680" y="797" as="targetPoint" />
          </mxGeometry>
        </mxCell>
        <mxCell id="C-Wze693i4gCi11VPQKC-90" value="(1,N)" style="text;html=1;align=center;verticalAlign=middle;resizable=0;points=[];autosize=1;strokeColor=none;" vertex="1" parent="1">
          <mxGeometry x="530" y="880" width="40" height="20" as="geometry" />
        </mxCell>
        <mxCell id="C-Wze693i4gCi11VPQKC-91" value="(1,N)" style="text;html=1;align=center;verticalAlign=middle;resizable=0;points=[];autosize=1;strokeColor=none;" vertex="1" parent="1">
          <mxGeometry x="640" y="890" width="40" height="20" as="geometry" />
        </mxCell>
        <mxCell id="C-Wze693i4gCi11VPQKC-92" value="(1,N)" style="text;html=1;align=center;verticalAlign=middle;resizable=0;points=[];autosize=1;strokeColor=none;" vertex="1" parent="1">
          <mxGeometry x="800" y="880" width="40" height="20" as="geometry" />
        </mxCell>
        <mxCell id="C-Wze693i4gCi11VPQKC-94" value="" style="endArrow=none;html=1;rounded=0;entryX=0.5;entryY=0;entryDx=0;entryDy=0;exitX=0.5;exitY=1;exitDx=0;exitDy=0;" edge="1" parent="1" source="C-Wze693i4gCi11VPQKC-34" target="C-Wze693i4gCi11VPQKC-83">
          <mxGeometry relative="1" as="geometry">
            <mxPoint x="410" y="630" as="sourcePoint" />
            <mxPoint x="570" y="630" as="targetPoint" />
          </mxGeometry>
        </mxCell>
      </root>
    </mxGraphModel>
  </diagram>
</mxfile>
